<svg width="24" height="22" viewBox="0 0 24 22" fill="none" xmlns="http://www.w3.org/2000/svg">
<path d="M3.42885 21.8525C4.20746 21.8514 4.96258 21.5857 5.57035 21.099C6.17811 20.6123 6.60243 19.9335 6.77371 19.174H17.2268C17.378 19.847 17.7288 20.4588 18.2333 20.9293C18.7378 21.3997 19.3725 21.707 20.0545 21.8109C20.7364 21.9149 21.4339 21.8106 22.0556 21.5117C22.6773 21.2129 23.1944 20.7334 23.5392 20.1359C23.884 19.5385 24.0405 18.8509 23.9883 18.163C23.936 17.4752 23.6774 16.8192 23.2462 16.2807C22.8151 15.7422 22.2315 15.3463 21.5718 15.1449C20.912 14.9434 20.2068 14.9457 19.5484 15.1515L14.3215 6.09836C14.8295 5.63102 15.1846 5.02122 15.3404 4.34874C15.4962 3.67626 15.4453 2.97242 15.1945 2.32931C14.9437 1.6862 14.5046 1.13377 13.9347 0.74431C13.3647 0.354847 12.6905 0.146484 12.0002 0.146484C11.31 0.146484 10.6357 0.354847 10.0658 0.74431C9.4959 1.13377 9.0568 1.6862 8.80599 2.32931C8.55518 2.97242 8.50433 3.67626 8.6601 4.34874C8.81587 5.02122 9.17099 5.63102 9.67902 6.09836L4.45217 15.1515C3.98066 15.004 3.48285 14.9602 2.99283 15.023C2.5028 15.0858 2.03213 15.2537 1.61305 15.5153C1.19396 15.7769 0.836368 16.126 0.564741 16.5387C0.293115 16.9514 0.113875 17.4178 0.0392944 17.9062C-0.0352863 18.3946 -0.00344606 18.8933 0.132635 19.3682C0.268716 19.8432 0.505823 20.2831 0.827722 20.6578C1.14962 21.0326 1.54871 21.3334 1.99766 21.5396C2.4466 21.7458 2.93481 21.8525 3.42885 21.8525ZM22.5003 18.424C22.5003 18.8054 22.3872 19.1783 22.1752 19.4955C21.9633 19.8126 21.6621 20.0598 21.3097 20.2058C20.9573 20.3517 20.5696 20.3899 20.1954 20.3155C19.8213 20.2411 19.4777 20.0574 19.208 19.7877C18.9383 19.518 18.7546 19.1744 18.6802 18.8003C18.6058 18.4261 18.6439 18.0384 18.7899 17.686C18.9359 17.3336 19.1831 17.0324 19.5002 16.8205C19.8174 16.6085 20.1903 16.4954 20.5717 16.4954C21.083 16.496 21.5732 16.6994 21.9348 17.0609C22.2963 17.4225 22.4997 17.9127 22.5003 18.424ZM12.0003 1.64936C12.3817 1.64936 12.7546 1.76247 13.0717 1.97439C13.3889 2.1863 13.6361 2.48751 13.782 2.83991C13.928 3.19231 13.9662 3.58008 13.8918 3.95419C13.8174 4.3283 13.6337 4.67194 13.364 4.94165C13.0943 5.21137 12.7506 5.39505 12.3765 5.46946C12.0024 5.54388 11.6146 5.50569 11.2622 5.35972C10.9098 5.21375 10.6086 4.96656 10.3967 4.6494C10.1848 4.33225 10.0717 3.95938 10.0717 3.57794C10.0723 3.06663 10.2756 2.57643 10.6372 2.21488C10.9988 1.85332 11.489 1.64995 12.0003 1.64936ZM10.9769 6.85038C11.6433 7.05844 12.3572 7.05844 13.0236 6.85038L18.2504 15.9035C17.7371 16.3758 17.38 16.9935 17.2268 17.674H6.77371C6.62052 16.9934 6.26339 16.3758 5.75 15.9035L10.9769 6.85038ZM3.42885 16.4954C3.81028 16.4954 4.18315 16.6085 4.50031 16.8205C4.81746 17.0324 5.06465 17.3336 5.21062 17.686C5.35659 18.0384 5.39478 18.4261 5.32037 18.8003C5.24595 19.1744 5.06227 19.518 4.79256 19.7877C4.52284 20.0574 4.1792 20.2411 3.80509 20.3155C3.43099 20.3899 3.04321 20.3517 2.69081 20.2058C2.33841 20.0598 2.03721 19.8126 1.82529 19.4955C1.61338 19.1783 1.50027 18.8054 1.50027 18.424C1.50084 17.9127 1.70421 17.4225 2.06577 17.0609C2.42732 16.6994 2.91753 16.496 3.42885 16.4954Z" fill="#E6E6E6"/>
</svg>
