<svg width="24" height="22" viewBox="0 0 24 22" fill="none" xmlns="http://www.w3.org/2000/svg">
<path d="M19.0026 15.9975C17.3525 15.9975 16.0101 17.34 16.0101 18.9901C16.0101 20.6401 17.3526 21.9826 19.0026 21.9826C20.6527 21.9826 21.9951 20.6401 21.9951 18.9901C21.9951 17.34 20.6527 15.9975 19.0026 15.9975ZM19.0026 20.1871C18.3425 20.1871 17.8056 19.6502 17.8056 18.9901C17.8056 18.3299 18.3425 17.793 19.0026 17.793C19.6628 17.793 20.1996 18.3299 20.1996 18.9901C20.1996 19.6502 19.6628 20.1871 19.0026 20.1871ZM23.8092 4.43167C23.7253 4.32433 23.618 4.23752 23.4956 4.17784C23.3731 4.11816 23.2386 4.08717 23.1024 4.08723H5.54159L4.73361 0.706586C4.68665 0.510307 4.57495 0.335563 4.41653 0.210535C4.2581 0.0855062 4.06218 0.0174799 3.86037 0.0174255H0.897755C0.401909 0.0173787 0 0.419287 0 0.915134C0 1.41098 0.401909 1.81289 0.897755 1.81289H3.15175L6.06946 14.0212C6.11636 14.2175 6.22804 14.3923 6.38648 14.5173C6.54492 14.6424 6.74086 14.7104 6.9427 14.7104H20.9179C21.3305 14.7104 21.6902 14.4291 21.7893 14.0287L23.9738 5.20071C24.0064 5.06842 24.0086 4.93046 23.9801 4.79724C23.9515 4.66401 23.8931 4.53901 23.8092 4.43167ZM20.2155 12.9149H7.65131L5.97069 5.88274H21.9553L20.2155 12.9149ZM8.1397 15.9975C6.4896 15.9975 5.14719 17.34 5.14719 18.9901C5.14719 20.6401 6.48965 21.9826 8.1397 21.9826C9.78976 21.9826 11.1322 20.6401 11.1322 18.9901C11.1322 17.34 9.78976 15.9975 8.1397 15.9975ZM8.1397 20.1871C7.47956 20.1871 6.9427 19.6502 6.9427 18.9901C6.9427 18.3299 7.47956 17.793 8.1397 17.793C8.79985 17.793 9.33671 18.3299 9.33671 18.9901C9.33671 19.6502 8.79985 20.1871 8.1397 20.1871Z" fill="#B3B3B3"/>
</svg>
