<svg width="230" height="216" viewBox="0 0 230 216" fill="none" xmlns="http://www.w3.org/2000/svg">
<g clip-path="url(#clip0_646_7029)">
<rect x="27.9883" y="66.916" width="1" height="1" fill="#1A75FF"/>
<rect x="28.9883" y="67.916" width="1" height="1" fill="#1A75FF"/>
<rect x="29.9883" y="67.916" width="1" height="1" fill="#1A75FF"/>
<rect x="28.9883" y="66.916" width="1" height="1" fill="#1A75FF"/>
<rect x="27.9883" y="67.916" width="1" height="1" fill="#1A75FF"/>
<rect x="30.9883" y="67.916" width="1" height="1" fill="#1A75FF"/>
<rect x="27.9883" y="68.916" width="1" height="1" fill="#1A75FF"/>
<rect x="28.9883" y="68.916" width="1" height="1" fill="#1A75FF"/>
<rect x="29.9883" y="68.916" width="1" height="1" fill="#1A75FF"/>
<rect x="30.9883" y="68.916" width="1" height="1" fill="#1A75FF"/>
<rect x="31.9883" y="68.916" width="1" height="1" fill="#1A75FF"/>
<rect x="32.9883" y="69.916" width="1" height="1" fill="#1A75FF"/>
<rect x="31.9883" y="69.916" width="1" height="1" fill="#1A75FF"/>
<rect x="30.9883" y="69.916" width="1" height="1" fill="#1A75FF"/>
<rect x="29.9883" y="69.916" width="1" height="1" fill="#1A75FF"/>
<rect x="27.9883" y="69.916" width="1" height="1" fill="#1A75FF"/>
<rect x="28.9883" y="69.916" width="1" height="1" fill="#1A75FF"/>
<rect x="27.9883" y="70.916" width="1" height="1" fill="#1A75FF"/>
<rect x="28.9883" y="70.916" width="1" height="1" fill="#1A75FF"/>
<rect x="29.9883" y="70.916" width="1" height="1" fill="#1A75FF"/>
<rect x="30.9883" y="70.916" width="1" height="1" fill="#1A75FF"/>
<rect x="31.9883" y="70.916" width="1" height="1" fill="#1A75FF"/>
<rect x="32.9883" y="70.916" width="1" height="1" fill="#1A75FF"/>
<rect x="33.9883" y="70.916" width="1" height="1" fill="#1A75FF"/>
<rect x="34.9883" y="70.916" width="1" height="1" fill="#1A75FF"/>
<rect x="33.9883" y="69.916" width="1" height="1" fill="#1A75FF"/>
<rect x="34.9883" y="71.916" width="1" height="1" fill="#1A75FF"/>
<rect x="33.9883" y="71.916" width="1" height="1" fill="#1A75FF"/>
<rect x="31.9883" y="71.916" width="1" height="1" fill="#1A75FF"/>
<rect x="32.9883" y="71.916" width="1" height="1" fill="#1A75FF"/>
<rect x="29.9883" y="71.916" width="1" height="1" fill="#1A75FF"/>
<rect x="30.9883" y="71.916" width="1" height="1" fill="#1A75FF"/>
<rect x="28.9883" y="71.916" width="1" height="1" fill="#1A75FF"/>
<rect x="27.9883" y="71.916" width="1" height="1" fill="#1A75FF"/>
<rect x="35.9883" y="71.916" width="1" height="1" fill="#1A75FF"/>
<rect x="36.9883" y="71.916" width="1" height="1" fill="#1A75FF"/>
<rect x="37.9883" y="72.916" width="1" height="1" fill="#1A75FF"/>
<rect x="35.9883" y="72.916" width="1" height="1" fill="#1A75FF"/>
<rect x="28.9883" y="72.916" width="7" height="1" fill="#1A75FF"/>
<rect x="27.9883" y="73.916" width="7" height="1" fill="#1A75FF"/>
<rect x="34.9883" y="73.916" width="7" height="1" fill="#1A75FF"/>
<rect x="32.9883" y="74.916" width="7" height="1" fill="#1A75FF"/>
<rect x="28.9883" y="74.916" width="7" height="1" fill="#1A75FF"/>
<rect x="36.9883" y="74.916" width="7" height="1" fill="#1A75FF"/>
<rect x="36.9883" y="75.916" width="7" height="1" fill="#1A75FF"/>
<rect x="31.9883" y="76.916" width="7" height="1" fill="#1A75FF"/>
<rect x="38.9883" y="76.916" width="7" height="1" fill="#1A75FF"/>
<rect x="40.9883" y="76.916" width="7" height="1" fill="#1A75FF"/>
<rect x="37.9883" y="77.916" width="7" height="1" fill="#1A75FF"/>
<rect x="31.9883" y="77.916" width="7" height="1" fill="#1A75FF"/>
<rect x="44.9883" y="77.916" width="7" height="1" fill="#1A75FF"/>
<rect x="43.9883" y="78.916" width="7" height="1" fill="#1A75FF"/>
<rect x="34.9883" y="78.916" width="7" height="1" fill="#1A75FF"/>
<rect x="37.9883" y="78.916" width="7" height="1" fill="#1A75FF"/>
<rect x="36.9883" y="79.916" width="7" height="1" fill="#1A75FF"/>
<rect x="41.9883" y="79.916" width="7" height="1" fill="#1A75FF"/>
<rect x="47.9883" y="79.916" width="7" height="1" fill="#1A75FF"/>
<rect x="49.9883" y="78.916" width="7" height="1" fill="#1A75FF"/>
<rect x="51.9883" y="77.916" width="7" height="1" fill="#1A75FF"/>
<rect x="40.9883" y="80.916" width="7" height="1" fill="#1A75FF"/>
<rect x="36.9883" y="80.916" width="7" height="1" fill="#1A75FF"/>
<rect x="46.9883" y="81.916" width="7" height="1" fill="#1A75FF"/>
<rect x="44.9883" y="82.916" width="7" height="1" fill="#1A75FF"/>
<rect x="40.9883" y="82.916" width="7" height="1" fill="#1A75FF"/>
<rect x="52.9883" y="82.916" width="7" height="1" fill="#1A75FF"/>
<rect x="50.9883" y="82.916" width="7" height="1" fill="#161B22"/>
<rect x="53.9883" y="80.916" width="7" height="1" fill="#1A75FF"/>
<rect x="53.9883" y="81.916" width="7" height="1" fill="#1A75FF"/>
<rect x="54.9883" y="79.916" width="7" height="1" fill="#1A75FF"/>
<rect x="49.9883" y="83.916" width="7" height="1" fill="#1A75FF"/>
<rect x="43.9883" y="83.916" width="7" height="1" fill="#1A75FF"/>
<rect x="44.9883" y="84.916" width="7" height="1" fill="#1A75FF"/>
<rect x="50.9883" y="85.916" width="7" height="1" fill="#1A75FF"/>
<rect x="51.9883" y="84.916" width="7" height="1" fill="#1A75FF"/>
<rect x="45.9883" y="85.916" width="7" height="1" fill="#1A75FF"/>
<rect x="46.9883" y="85.916" width="7" height="1" fill="#1A75FF"/>
<rect x="54.9883" y="77.916" width="7" height="1" fill="#1A75FF"/>
<rect x="54.9883" y="78.916" width="7" height="1" fill="#1A75FF"/>
<rect x="56.9883" y="80.916" width="7" height="1" fill="#1A75FF"/>
<rect x="56.9883" y="81.916" width="7" height="1" fill="#1A75FF"/>
<rect x="56.9883" y="82.916" width="7" height="1" fill="#1A75FF"/>
<rect x="55.9883" y="83.916" width="7" height="1" fill="#1A75FF"/>
<rect x="54.9883" y="84.916" width="7" height="1" fill="#1A75FF"/>
<rect x="55.9883" y="76.916" width="7" height="1" fill="#1A75FF"/>
<rect x="57.9883" y="75.916" width="7" height="1" fill="#1A75FF"/>
<rect x="61.9883" y="77.916" width="7" height="1" fill="#1A75FF"/>
<rect x="61.9883" y="78.916" width="7" height="1" fill="#1A75FF"/>
<rect x="59.9883" y="79.916" width="7" height="1" fill="#1A75FF"/>
<rect x="58.9883" y="80.916" width="7" height="1" fill="#1A75FF"/>
<rect x="60.9883" y="81.916" width="1" height="1" fill="#1A75FF"/>
<rect x="58.9883" y="74.916" width="12" height="1" fill="#1A75FF"/>
<rect x="59.9883" y="76.916" width="12" height="1" fill="#1A75FF"/>
<rect x="58.9883" y="75.916" width="12" height="1" fill="#B3B3B3"/>
<rect x="58.9883" y="73.916" width="12" height="1" fill="#1A75FF"/>
<rect x="60.9883" y="72.916" width="12" height="1" fill="#1A75FF"/>
<rect x="61.9883" y="71.916" width="12" height="1" fill="#1A75FF"/>
<rect x="62.9883" y="70.916" width="12" height="1" fill="#1A75FF"/>
<rect x="63.9883" y="69.916" width="12" height="1" fill="#B3B3B3"/>
<rect x="64.9883" y="68.916" width="12" height="1" fill="#1A75FF"/>
<rect x="64.9883" y="67.916" width="12" height="1" fill="#1A75FF"/>
<rect x="66.9883" y="66.916" width="12" height="1" fill="#1A75FF"/>
<rect x="66.9883" y="65.916" width="13" height="1" fill="#1A75FF"/>
<rect x="67.9883" y="64.916" width="13" height="1" fill="#1A75FF"/>
<rect x="67.9883" y="63.916" width="13" height="1" fill="#1A75FF"/>
<rect x="77" y="64" width="6" height="1" fill="#171C23"/>
<rect x="66" y="66" width="6" height="1" fill="#171C23"/>
<rect x="73" y="67" width="6" height="1" fill="#171C23"/>
<rect x="64" y="68" width="6" height="1" fill="#171C23"/>
<rect x="66" y="72" width="6" height="1" fill="#171C23"/>
<rect x="59" y="72" width="6" height="1" fill="#171C23"/>
<rect x="67" y="74" width="6" height="1" fill="#171C23"/>
<rect x="64" y="79" width="6" height="1" fill="#171C23"/>
<rect x="54" y="78" width="6" height="1" fill="#171C23"/>
<rect x="61" y="81" width="6" height="1" fill="#171C23"/>
<rect x="64" y="78" width="6" height="1" fill="#171C23"/>
<rect x="53" y="86" width="6" height="1" fill="#171C23"/>
<rect x="43" y="85" width="6" height="1" fill="#171C23"/>
<rect x="44" y="78" width="6" height="1" fill="#171C23"/>
<rect x="38" y="75" width="6" height="1" fill="#171C23"/>
<rect x="28" y="72" width="6" height="1" fill="#171C23"/>
<rect x="69.9883" y="62.916" width="28" height="1" fill="#1A75FF"/>
<rect x="69.9883" y="61.916" width="28" height="1" fill="#1A75FF"/>
<rect x="69.9883" y="59.916" width="28" height="1" fill="#1A75FF"/>
<rect x="69.9883" y="58.916" width="28" height="1" fill="#1A75FF"/>
<rect x="74.9883" y="57.916" width="22" height="1" fill="#1A75FF"/>
<rect x="76.9883" y="56.916" width="16" height="1" fill="#1A75FF"/>
<rect x="78.9883" y="54.916" width="13" height="1" fill="#1A75FF"/>
<rect x="84.9883" y="63.916" width="13" height="1" fill="#1A1C28"/>
<rect x="87.9883" y="64.916" width="10" height="1" fill="#1A75FF"/>
<rect x="88.9883" y="66.916" width="9" height="1" fill="#1A75FF"/>
<rect x="89.9883" y="67.916" width="9" height="1" fill="#1A75FF"/>
<rect x="89.9883" y="68.916" width="9" height="1" fill="#1A75FF"/>
<rect x="90.9883" y="69.916" width="9" height="1" fill="#1A75FF"/>
<rect x="90.9883" y="70.916" width="9" height="1" fill="#1A75FF"/>
<rect x="90.9883" y="71.916" width="9" height="1" fill="#1A75FF"/>
<rect x="90.5176" y="73" width="5" height="1" fill="#1A75FF"/>
<rect x="95.5176" y="73" width="5" height="1" fill="#B3B3B3"/>
<rect x="91.9883" y="73.916" width="9" height="1" fill="#1A75FF"/>
<rect x="91.9883" y="74.916" width="9" height="1" fill="#1A75FF"/>
<rect x="91.5176" y="76" width="4" height="1" fill="#1A75FF"/>
<rect x="95.5176" y="76" width="4" height="1" fill="#B3B3B3"/>
<rect x="97.5176" y="76" width="4" height="1" fill="#B3B3B3"/>
<rect x="91.5176" y="77" width="5" height="1" fill="#1A75FF"/>
<rect x="92" y="78" width="4" height="1" fill="#1A75FF"/>
<rect x="96" y="78" width="4" height="1" fill="#1A75FF"/>
<rect x="98" y="78" width="4" height="1" fill="#1A75FF"/>
<rect x="93" y="79" width="4" height="1" fill="#1A75FF"/>
<rect x="97" y="79" width="4" height="1" fill="#1A75FF"/>
<rect x="98" y="79" width="4" height="1" fill="#1A75FF"/>
<rect x="93" y="80" width="4" height="1" fill="#1A75FF"/>
<rect x="96" y="80" width="4" height="1" fill="#1A75FF"/>
<rect x="99" y="80" width="4" height="1" fill="#1A75FF"/>
<rect x="94" y="81" width="4" height="1" fill="#1A75FF"/>
<rect x="97" y="81" width="4" height="1" fill="#1A75FF"/>
<rect x="99" y="81" width="4" height="1" fill="#1A75FF"/>
<rect x="93" y="82" width="4" height="1" fill="#1A75FF"/>
<rect x="96" y="82" width="4" height="1" fill="#1A75FF"/>
<rect x="99" y="82" width="4" height="1" fill="#171C24"/>
<rect x="96" y="83" width="4" height="1" fill="#1A75FF"/>
<rect x="93" y="83" width="4" height="1" fill="#1A75FF"/>
<rect x="99" y="83" width="4" height="1" fill="#1A75FF"/>
<rect x="101" y="83" width="4" height="1" fill="#1A75FF"/>
<rect x="95" y="84" width="4" height="1" fill="#1A75FF"/>
<rect x="99" y="84" width="4" height="1" fill="#1A75FF"/>
<rect x="102" y="84" width="4" height="1" fill="#1A75FF"/>
<rect x="95" y="85" width="4" height="1" fill="#1A75FF"/>
<rect x="98" y="85" width="4" height="1" fill="#1A75FF"/>
<rect x="102" y="85" width="4" height="1" fill="#1A75FF"/>
<rect x="94" y="86" width="4" height="1" fill="#1A75FF"/>
<rect x="99" y="86" width="4" height="1" fill="#1A75FF"/>
<rect x="104" y="86" width="4" height="1" fill="#1A75FF"/>
<rect x="97" y="87" width="4" height="1" fill="#1A75FF"/>
<rect x="101" y="87" width="4" height="1" fill="#1A75FF"/>
<rect x="104" y="88" width="4" height="1" fill="#1A75FF"/>
<rect x="98" y="88" width="4" height="1" fill="#1A75FF"/>
<rect x="101" y="88" width="4" height="1" fill="#1A75FF"/>
<rect x="101" y="89" width="4" height="1" fill="#1A75FF"/>
<rect x="95" y="89" width="4" height="1" fill="#1A75FF"/>
<rect x="98" y="89" width="4" height="1" fill="#1A75FF"/>
<rect x="104" y="89" width="4" height="1" fill="#1A75FF"/>
<rect x="102" y="90" width="4" height="1" fill="#1A75FF"/>
<rect x="104" y="90" width="4" height="1" fill="#1A75FF"/>
<rect x="98" y="90" width="4" height="1" fill="#1A75FF"/>
<rect x="98" y="91" width="4" height="1" fill="#1A75FF"/>
<rect x="102" y="91" width="4" height="1" fill="#1A75FF"/>
<rect x="106" y="91" width="4" height="1" fill="#1A75FF"/>
<rect x="100" y="92" width="4" height="1" fill="#1A75FF"/>
<rect x="98" y="92" width="4" height="1" fill="#1A75FF"/>
<rect x="105" y="92" width="4" height="1" fill="#1A75FF"/>
<rect x="103" y="92" width="4" height="1" fill="#1A75FF"/>
<rect x="101" y="93" width="4" height="1" fill="#1A75FF"/>
<rect x="99" y="93" width="4" height="1" fill="#1A75FF"/>
<rect x="107" y="93" width="4" height="1" fill="#1A75FF"/>
<rect x="104" y="94" width="4" height="1" fill="#1A75FF"/>
<rect x="107" y="94" width="4" height="1" fill="#1A75FF"/>
<rect x="99" y="95" width="4" height="1" fill="#1A75FF"/>
<rect x="101" y="95" width="4" height="1" fill="#1A75FF"/>
<rect x="104" y="95" width="4" height="1" fill="#1A75FF"/>
<rect x="107" y="95" width="4" height="1" fill="#1A75FF"/>
<rect x="101" y="96" width="4" height="1" fill="#1A75FF"/>
<rect x="106" y="96" width="4" height="1" fill="#1A75FF"/>
<rect x="104" y="96" width="4" height="1" fill="#1A75FF"/>
<rect x="109" y="96" width="4" height="1" fill="#1A75FF"/>
<rect x="102" y="97" width="4" height="1" fill="#1A75FF"/>
<rect x="106" y="97" width="4" height="1" fill="#1A75FF"/>
<rect x="109" y="97" width="4" height="1" fill="#1A75FF"/>
<rect x="111" y="97" width="4" height="1" fill="#1A75FF"/>
<rect x="106" y="98" width="4" height="1" fill="#1A75FF"/>
<rect x="110" y="98" width="4" height="1" fill="#1A75FF"/>
<rect x="112" y="98" width="4" height="1" fill="#1A75FF"/>
<rect x="107" y="99" width="4" height="1" fill="#1A75FF"/>
<rect x="111" y="99" width="4" height="1" fill="#1A75FF"/>
<rect x="114" y="99" width="4" height="1" fill="#1A75FF"/>
<rect x="109" y="100" width="4" height="1" fill="#1A75FF"/>
<rect x="113" y="100" width="4" height="1" fill="#1A75FF"/>
<rect x="115" y="100" width="4" height="1" fill="#1A75FF"/>
<rect x="118" y="100" width="4" height="1" fill="#1A75FF"/>
<rect x="122" y="100" width="4" height="1" fill="#1A75FF"/>
<rect x="132" y="95" width="4" height="1" fill="#1A75FF"/>
<rect x="141" y="91" width="4" height="1" fill="#1A75FF"/>
<rect x="132" y="92" width="4" height="1" fill="#1A75FF"/>
<rect x="131" y="94" width="4" height="1" fill="#1A75FF"/>
<rect x="146" y="93" width="4" height="1" fill="#1A75FF"/>
<rect x="142" y="89" width="4" height="1" fill="#1A75FF"/>
<rect x="137" y="89" width="4" height="1" fill="#1A75FF"/>
<rect x="148" y="95" width="4" height="1" fill="#1A75FF"/>
<rect x="149" y="97" width="4" height="1" fill="#1A75FF"/>
<rect x="126" y="100" width="4" height="1" fill="#1A75FF"/>
<rect x="136" y="95" width="4" height="1" fill="#1A75FF"/>
<rect x="145" y="91" width="4" height="1" fill="#1A75FF"/>
<rect x="136" y="92" width="4" height="1" fill="#1A75FF"/>
<rect x="135" y="94" width="4" height="1" fill="#1A75FF"/>
<rect x="150" y="93" width="4" height="1" fill="#1A75FF"/>
<rect x="146" y="89" width="4" height="1" fill="#1A75FF"/>
<rect x="141" y="89" width="4" height="1" fill="#1A75FF"/>
<rect x="152" y="95" width="4" height="1" fill="#1A75FF"/>
<rect x="153" y="97" width="4" height="1" fill="#1A75FF"/>
<rect x="129" y="100" width="4" height="1" fill="#1A75FF"/>
<rect x="139" y="95" width="4" height="1" fill="#1A75FF"/>
<rect x="148" y="91" width="4" height="1" fill="#1A75FF"/>
<rect x="139" y="92" width="4" height="1" fill="#1A75FF"/>
<rect x="138" y="94" width="4" height="1" fill="#1A75FF"/>
<rect x="153" y="93" width="4" height="1" fill="#1A75FF"/>
<rect x="149" y="89" width="4" height="1" fill="#1A75FF"/>
<rect x="144" y="89" width="4" height="1" fill="#1A75FF"/>
<rect x="155" y="95" width="4" height="1" fill="#1A75FF"/>
<rect x="156" y="97" width="4" height="1" fill="#1A75FF"/>
<rect x="121" y="99" width="4" height="1" fill="#1A75FF"/>
<rect x="118" y="99" width="4" height="1" fill="#1A75FF"/>
<rect x="121" y="98" width="4" height="1" fill="#1A75FF"/>
<rect x="118" y="98" width="4" height="1" fill="#1A75FF"/>
<rect x="124" y="98" width="4" height="1" fill="#1A75FF"/>
<rect x="128" y="98" width="4" height="1" fill="#1A75FF"/>
<rect x="132" y="98" width="4" height="1" fill="#1A75FF"/>
<rect x="126" y="99" width="4" height="1" fill="#1A75FF"/>
<rect x="136" y="94" width="4" height="1" fill="#1A75FF"/>
<rect x="145" y="90" width="4" height="1" fill="#1A75FF"/>
<rect x="136" y="91" width="4" height="1" fill="#1A75FF"/>
<rect x="135" y="93" width="4" height="1" fill="#1A75FF"/>
<rect x="150" y="92" width="4" height="1" fill="#1A75FF"/>
<rect x="146" y="88" width="4" height="1" fill="#1A75FF"/>
<rect x="141" y="88" width="4" height="1" fill="#1A75FF"/>
<rect x="153" y="96" width="4" height="1" fill="#1A75FF"/>
<rect x="130" y="99" width="4" height="1" fill="#1A75FF"/>
<rect x="140" y="94" width="4" height="1" fill="#1A75FF"/>
<rect x="149" y="90" width="4" height="1" fill="#1A75FF"/>
<rect x="140" y="91" width="4" height="1" fill="#1A75FF"/>
<rect x="139" y="93" width="4" height="1" fill="#1A75FF"/>
<rect x="154" y="92" width="4" height="1" fill="#1A75FF"/>
<rect x="150" y="88" width="4" height="1" fill="#1A75FF"/>
<rect x="145" y="88" width="4" height="1" fill="#1A75FF"/>
<rect x="156" y="94" width="4" height="1" fill="#1A75FF"/>
<rect x="157" y="96" width="4" height="1" fill="#1A75FF"/>
<rect x="137" y="95" width="4" height="1" fill="#1A75FF"/>
<rect x="123" y="99" width="4" height="1" fill="#1A75FF"/>
<rect x="122" y="101" width="4" height="1" fill="#1A75FF"/>
<rect x="119" y="101" width="4" height="1" fill="#1A75FF"/>
<rect x="129" y="96" width="4" height="1" fill="#1A75FF"/>
<rect x="138" y="92" width="4" height="1" fill="#1A75FF"/>
<rect x="129" y="93" width="4" height="1" fill="#1A75FF"/>
<rect x="128" y="95" width="4" height="1" fill="#1A75FF"/>
<rect x="143" y="94" width="4" height="1" fill="#1A75FF"/>
<rect x="139" y="90" width="4" height="1" fill="#1A75FF"/>
<rect x="134" y="90" width="4" height="1" fill="#1A75FF"/>
<rect x="145" y="96" width="4" height="1" fill="#1A75FF"/>
<rect x="146" y="98" width="4" height="1" fill="#1A75FF"/>
<rect x="115" y="101" width="4" height="1" fill="#1A75FF"/>
<rect x="125" y="96" width="4" height="1" fill="#1A75FF"/>
<rect x="134" y="92" width="4" height="1" fill="#1A75FF"/>
<rect x="125" y="93" width="4" height="1" fill="#1A75FF"/>
<rect x="124" y="95" width="4" height="1" fill="#1A75FF"/>
<rect x="139" y="94" width="4" height="1" fill="#1A75FF"/>
<rect x="135" y="90" width="4" height="1" fill="#1A75FF"/>
<rect x="130" y="90" width="4" height="1" fill="#1A75FF"/>
<rect x="141" y="96" width="4" height="1" fill="#1A75FF"/>
<rect x="113" y="101" width="4" height="1" fill="#1A75FF"/>
<rect x="123" y="96" width="4" height="1" fill="#1A75FF"/>
<rect x="132" y="92" width="4" height="1" fill="#1A75FF"/>
<rect x="123" y="93" width="4" height="1" fill="#1A75FF"/>
<rect x="122" y="95" width="4" height="1" fill="#1A75FF"/>
<rect x="137" y="94" width="4" height="1" fill="#1A75FF"/>
<rect x="133" y="90" width="4" height="1" fill="#1A75FF"/>
<rect x="128" y="90" width="4" height="1" fill="#1A75FF"/>
<rect x="139" y="96" width="4" height="1" fill="#1A75FF"/>
<rect x="107" y="101" width="4" height="1" fill="#1A75FF"/>
<rect x="110" y="101" width="4" height="1" fill="#1A75FF"/>
<rect x="108" y="102" width="4" height="1" fill="#1A75FF"/>
<rect x="111" y="102" width="4" height="1" fill="#1A75FF"/>
<rect x="114" y="102" width="4" height="1" fill="#1A75FF"/>
<rect x="118" y="102" width="4" height="1" fill="#1A75FF"/>
<rect x="128" y="97" width="4" height="1" fill="#1A75FF"/>
<rect x="137" y="93" width="4" height="1" fill="#1A75FF"/>
<rect x="128" y="94" width="4" height="1" fill="#1A75FF"/>
<rect x="127" y="96" width="4" height="1" fill="#1A75FF"/>
<rect x="142" y="95" width="4" height="1" fill="#1A75FF"/>
<rect x="138" y="91" width="4" height="1" fill="#1A75FF"/>
<rect x="133" y="91" width="4" height="1" fill="#1A75FF"/>
<rect x="126" y="103" width="4" height="1" fill="#1A75FF"/>
<rect x="127" y="102" width="4" height="1" fill="#1A75FF"/>
<rect x="125" y="102" width="4" height="1" fill="#1A75FF"/>
<rect x="127" y="101" width="4" height="1" fill="#1A75FF"/>
<rect x="131" y="101" width="4" height="1" fill="#1A75FF"/>
<rect x="122" y="103" width="4" height="1" fill="#1A75FF"/>
<rect x="132" y="98" width="4" height="1" fill="#1A75FF"/>
<rect x="141" y="94" width="4" height="1" fill="#1A75FF"/>
<rect x="132" y="95" width="4" height="1" fill="#1A75FF"/>
<rect x="131" y="97" width="4" height="1" fill="#1A75FF"/>
<rect x="146" y="96" width="4" height="1" fill="#1A75FF"/>
<rect x="142" y="92" width="4" height="1" fill="#1A75FF"/>
<rect x="148" y="98" width="4" height="1" fill="#1A75FF"/>
<rect x="151" y="91" width="4" height="1" fill="#1A75FF"/>
<rect x="152" y="90" width="4" height="1" fill="#1A75FF"/>
<rect x="154" y="92" width="4" height="1" fill="#1A75FF"/>
<rect x="154" y="91" width="4" height="1" fill="#1A75FF"/>
<rect x="143" y="93" width="4" height="1" fill="#1A75FF"/>
<rect x="149" y="94" width="4" height="1" fill="#1A75FF"/>
<rect x="154" y="98" width="4" height="1" fill="#1A75FF"/>
<rect x="156" y="98" width="4" height="1" fill="#1A75FF"/>
<rect x="148" y="99" width="4" height="1" fill="#1A75FF"/>
<rect x="149" y="100" width="4" height="1" fill="#1A75FF"/>
<rect x="149" y="101" width="4" height="1" fill="#1A75FF"/>
<rect x="150" y="102" width="4" height="1" fill="#1A75FF"/>
<rect x="151" y="104" width="4" height="1" fill="#1A75FF"/>
<rect x="151" y="105" width="4" height="1" fill="#1A75FF"/>
<rect x="151" y="106" width="4" height="1" fill="#1A75FF"/>
<rect x="151" y="107" width="4" height="1" fill="#1A75FF"/>
<rect x="152" y="108" width="4" height="1" fill="#1A75FF"/>
<rect x="152" y="109" width="4" height="1" fill="#1A75FF"/>
<rect x="152" y="110" width="4" height="1" fill="#1A75FF"/>
<rect x="152" y="111" width="4" height="1" fill="#1A75FF"/>
<rect x="152" y="112" width="4" height="1" fill="#1A75FF"/>
<rect x="152" y="113" width="4" height="1" fill="#1A75FF"/>
<rect x="152" y="114" width="4" height="1" fill="#1A75FF"/>
<rect x="153" y="115" width="4" height="1" fill="#1A75FF"/>
<rect x="153" y="116" width="4" height="1" fill="#1A75FF"/>
<rect x="154" y="117" width="4" height="1" fill="#1A75FF"/>
<rect x="154" y="118" width="4" height="1" fill="#1A75FF"/>
<rect x="155" y="119" width="4" height="1" fill="#1A75FF"/>
<rect x="155" y="120" width="4" height="1" fill="#1A75FF"/>
<rect x="155" y="121" width="4" height="1" fill="#1A75FF"/>
<rect x="156" y="122" width="4" height="1" fill="#1A75FF"/>
<rect x="156" y="123" width="4" height="1" fill="#1A75FF"/>
<rect x="157" y="124" width="4" height="1" fill="#1A75FF"/>
<rect x="151" y="99" width="4" height="1" fill="#1A75FF"/>
<rect x="152" y="100" width="4" height="1" fill="#1A75FF"/>
<rect x="152" y="101" width="4" height="1" fill="#1A75FF"/>
<rect x="153" y="102" width="4" height="1" fill="#1A75FF"/>
<rect x="154" y="103" width="4" height="1" fill="#1A75FF"/>
<rect x="154" y="104" width="4" height="1" fill="#1A75FF"/>
<rect x="154" y="105" width="4" height="1" fill="#1A75FF"/>
<rect x="154" y="106" width="4" height="1" fill="#1A75FF"/>
<rect x="155" y="108" width="4" height="1" fill="#1A75FF"/>
<rect x="155" y="109" width="4" height="1" fill="#1A75FF"/>
<rect x="155" y="110" width="4" height="1" fill="#1A75FF"/>
<rect x="155" y="111" width="4" height="1" fill="#1A75FF"/>
<rect x="155" y="112" width="4" height="1" fill="#1A75FF"/>
<rect x="155" y="113" width="4" height="1" fill="#1A75FF"/>
<rect x="156" y="115" width="4" height="1" fill="#1A75FF"/>
<rect x="156" y="116" width="4" height="1" fill="#1A75FF"/>
<rect x="157" y="117" width="4" height="1" fill="#1A75FF"/>
<rect x="157" y="118" width="4" height="1" fill="#1A75FF"/>
<rect x="158" y="119" width="4" height="1" fill="#1A75FF"/>
<rect x="158" y="120" width="4" height="1" fill="#1A75FF"/>
<rect x="158" y="121" width="4" height="1" fill="#1A75FF"/>
<rect x="159" y="122" width="4" height="1" fill="#1A75FF"/>
<rect x="159" y="123" width="4" height="1" fill="#1A75FF"/>
<rect x="160" y="124" width="4" height="1" fill="#1A75FF"/>
<rect x="155" y="99" width="4" height="1" fill="#1A75FF"/>
<rect x="156" y="100" width="4" height="1" fill="#1A75FF"/>
<rect x="157" y="102" width="3" height="1" fill="#1A75FF"/>
<rect x="157" y="103" width="3" height="1" fill="#1A75FF"/>
<rect x="157" y="104" width="3" height="1" fill="#1A75FF"/>
<rect x="158" y="105" width="3" height="1" fill="#1A75FF"/>
<rect x="158" y="106" width="3" height="1" fill="#1A75FF"/>
<rect x="158" y="107" width="3" height="1" fill="#1A75FF"/>
<rect x="158" y="108" width="3" height="1" fill="#1A75FF"/>
<rect x="158" y="109" width="3" height="1" fill="#1A75FF"/>
<rect x="158" y="110" width="3" height="1" fill="#1A75FF"/>
<rect x="158" y="111" width="3" height="1" fill="#1A75FF"/>
<rect x="159" y="112" width="3" height="1" fill="#1A75FF"/>
<rect x="159" y="113" width="3" height="1" fill="#1A75FF"/>
<rect x="160" y="114" width="3" height="1" fill="#1A75FF"/>
<rect x="160" y="115" width="3" height="1" fill="#1A75FF"/>
<rect x="161" y="116" width="3" height="1" fill="#1A75FF"/>
<rect x="161" y="117" width="3" height="1" fill="#1A75FF"/>
<rect x="161" y="118" width="3" height="1" fill="#1A75FF"/>
<rect x="162" y="119" width="3" height="1" fill="#1A75FF"/>
<rect x="162" y="120" width="3" height="1" fill="#1A75FF"/>
<rect x="163" y="121" width="3" height="1" fill="#1A75FF"/>
<rect x="158" y="103" width="2" height="1" fill="#1A75FF"/>
<rect x="158" y="104" width="2" height="1" fill="#1A75FF"/>
<rect x="158" y="105" width="2" height="1" fill="#1A75FF"/>
<rect x="158" y="106" width="2" height="1" fill="#1A75FF"/>
<rect x="158" y="107" width="2" height="1" fill="#1A75FF"/>
<rect x="159" y="108" width="2" height="1" fill="#1A75FF"/>
<rect x="159" y="109" width="2" height="1" fill="#1A75FF"/>
<rect x="159" y="110" width="2" height="1" fill="#1A75FF"/>
<rect x="159" y="111" width="2" height="1" fill="#1A75FF"/>
<rect x="159" y="112" width="2" height="1" fill="#1A75FF"/>
<rect x="159" y="113" width="2" height="1" fill="#1A75FF"/>
<rect x="159" y="114" width="2" height="1" fill="#1A75FF"/>
<rect x="160" y="115" width="2" height="1" fill="#1A75FF"/>
<rect x="160" y="116" width="2" height="1" fill="#1A75FF"/>
<rect x="161" y="117" width="2" height="1" fill="#1A75FF"/>
<rect x="161" y="118" width="2" height="1" fill="#1A75FF"/>
<rect x="162" y="119" width="2" height="1" fill="#1A75FF"/>
<rect x="162" y="120" width="2" height="1" fill="#1A75FF"/>
<rect x="162" y="121" width="2" height="1" fill="#1A75FF"/>
<rect x="163" y="122" width="2" height="1" fill="#1A75FF"/>
<rect x="163" y="123" width="2" height="1" fill="#1A75FF"/>
<rect x="164" y="124" width="2" height="1" fill="#1A75FF"/>
<rect x="164" y="125" width="2" height="1" fill="#1A75FF"/>
<rect x="160" y="125" width="2" height="1" fill="#1A75FF"/>
<rect width="8" height="1" transform="matrix(-1 0 0 1 165 126)" fill="#1A75FF"/>
<rect width="8" height="1" transform="matrix(-1 0 0 1 169 126)" fill="#1A75FF"/>
<rect width="8" height="1" transform="matrix(-1 0 0 1 166 127)" fill="#1A75FF"/>
<rect width="8" height="1" transform="matrix(-1 0 0 1 170 127)" fill="#1A75FF"/>
<rect width="8" height="1" transform="matrix(-1 0 0 1 166 128)" fill="#1A75FF"/>
<rect width="8" height="1" transform="matrix(-1 0 0 1 170 128)" fill="#1A75FF"/>
<rect width="8" height="1" transform="matrix(-1 0 0 1 166 129)" fill="#1A75FF"/>
<rect width="8" height="1" transform="matrix(-1 0 0 1 171 129)" fill="#1A75FF"/>
<rect width="8" height="1" transform="matrix(-1 0 0 1 167 130)" fill="#1A75FF"/>
<rect width="8" height="1" transform="matrix(-1 0 0 1 167 131)" fill="#1A75FF"/>
<rect width="8" height="1" transform="matrix(-1 0 0 1 172 131)" fill="#1A75FF"/>
<rect width="8" height="1" transform="matrix(-1 0 0 1 169 132)" fill="#1A75FF"/>
<rect width="8" height="1" transform="matrix(-1 0 0 1 174 131)" fill="#1A75FF"/>
<rect width="8" height="1" transform="matrix(-1 0 0 1 174 132)" fill="#1A75FF"/>
<rect width="8" height="1" transform="matrix(-1 0 0 1 169 133)" fill="#1A75FF"/>
<rect width="8" height="1" transform="matrix(-1 0 0 1 174 133)" fill="#1A75FF"/>
<rect width="8" height="1" transform="matrix(-1 0 0 1 180 132)" fill="#1A75FF"/>
<rect width="8" height="1" transform="matrix(-1 0 0 1 181 131)" fill="#1A75FF"/>
<rect width="8" height="1" transform="matrix(-1 0 0 1 180 133)" fill="#1A75FF"/>
<rect width="8" height="1" transform="matrix(-1 0 0 1 169 134)" fill="#1A75FF"/>
<rect width="8" height="1" transform="matrix(-1 0 0 1 170 135)" fill="#1A75FF"/>
<rect width="8" height="1" transform="matrix(-1 0 0 1 176 135)" fill="#1A75FF"/>
<rect width="8" height="1" transform="matrix(-1 0 0 1 174 136)" fill="#1A75FF"/>
<rect width="8" height="1" transform="matrix(-1 0 0 1 171 136)" fill="#1A75FF"/>
<rect width="8" height="1" transform="matrix(-1 0 0 1 176 137)" fill="#1A75FF"/>
<rect width="8" height="1" transform="matrix(-1 0 0 1 175 138)" fill="#1A75FF"/>
<rect width="8" height="1" transform="matrix(-1 0 0 1 179 136)" fill="#1A75FF"/>
<rect width="8" height="1" transform="matrix(-1 0 0 1 183 134)" fill="#1A75FF"/>
<rect width="8" height="1" transform="matrix(-1 0 0 1 183 135)" fill="#1A75FF"/>
<rect width="8" height="1" transform="matrix(-1 0 0 1 187 133)" fill="#1A75FF"/>
<rect width="8" height="1" transform="matrix(-1 0 0 1 189 131)" fill="#1A75FF"/>
<rect width="8" height="1" transform="matrix(-1 0 0 1 188 132)" fill="#1A75FF"/>
<rect width="8" height="1" transform="matrix(-1 0 0 1 190 130)" fill="#1A75FF"/>
<rect width="8" height="1" transform="matrix(-1 0 0 1 191 134)" fill="#1A75FF"/>
<rect width="8" height="1" transform="matrix(-1 0 0 1 187 136)" fill="#1A75FF"/>
<rect width="8" height="1" transform="matrix(-1 0 0 1 191 138)" fill="#1A75FF"/>
<rect width="8" height="1" transform="matrix(-1 0 0 1 187 137)" fill="#1A75FF"/>
<rect width="8" height="1" transform="matrix(-1 0 0 1 188 140)" fill="#1A75FF"/>
<rect width="8" height="1" transform="matrix(-1 0 0 1 197 139)" fill="#1A75FF"/>
<rect width="8" height="1" transform="matrix(-1 0 0 1 199 138)" fill="#1A75FF"/>
<rect width="8" height="1" transform="matrix(-1 0 0 1 194 141)" fill="#1A75FF"/>
<rect width="8" height="1" transform="matrix(-1 0 0 1 197 140)" fill="#1A75FF"/>
<rect width="8" height="1" transform="matrix(-1 0 0 1 190 142)" fill="#1A75FF"/>
<rect width="8" height="1" transform="matrix(-1 0 0 1 185 141)" fill="#1A75FF"/>
<rect width="8" height="1" transform="matrix(-1 0 0 1 203 133)" fill="#1A75FF"/>
<rect width="8" height="1" transform="matrix(-1 0 0 1 202 135)" fill="#1A75FF"/>
<rect width="8" height="1" transform="matrix(-1 0 0 1 187 143)" fill="#1A75FF"/>
<rect width="8" height="1" transform="matrix(-1 0 0 1 204 134)" fill="#1A75FF"/>
<rect width="8" height="1" transform="matrix(-1 0 0 1 188 139)" fill="#1A75FF"/>
<rect width="8" height="1" transform="matrix(-1 0 0 1 184 142)" fill="#1A75FF"/>
<rect width="8" height="1" transform="matrix(-1 0 0 1 193 142)" fill="#1A75FF"/>
<rect width="8" height="1" transform="matrix(-1 0 0 1 192 136)" fill="#1A75FF"/>
<rect width="8" height="1" transform="matrix(-1 0 0 1 187 144)" fill="#1A75FF"/>
<rect width="8" height="1" transform="matrix(-1 0 0 1 192 143)" fill="#1A75FF"/>
<rect width="8" height="1" transform="matrix(-1 0 0 1 191 144)" fill="#1A75FF"/>
<rect width="8" height="1" transform="matrix(-1 0 0 1 181 144)" fill="#1A75FF"/>
<rect width="8" height="1" transform="matrix(-1 0 0 1 181 145)" fill="#1A75FF"/>
<rect width="8" height="1" transform="matrix(-1 0 0 1 188 145)" fill="#1A75FF"/>
<rect width="8" height="1" transform="matrix(-1 0 0 1 185 146)" fill="#1A75FF"/>
<rect width="8" height="1" transform="matrix(-1 0 0 1 188 146)" fill="#1A75FF"/>
<rect width="8" height="1" transform="matrix(-1 0 0 1 178 147)" fill="#1A75FF"/>
<rect width="8" height="1" transform="matrix(-1 0 0 1 184 147)" fill="#1A75FF"/>
<rect width="8" height="1" transform="matrix(-1 0 0 1 188 147)" fill="#1A75FF"/>
<rect width="8" height="1" transform="matrix(-1 0 0 1 177 148)" fill="#1A75FF"/>
<rect width="8" height="1" transform="matrix(-1 0 0 1 184 148)" fill="#1A75FF"/>
<rect width="8" height="1" transform="matrix(-1 0 0 1 186 149)" fill="#1A75FF"/>
<rect width="8" height="1" transform="matrix(-1 0 0 1 177 149)" fill="#1A75FF"/>
<rect width="8" height="1" transform="matrix(-1 0 0 1 180 149)" fill="#1A75FF"/>
<rect width="8" height="1" transform="matrix(-1 0 0 1 178 150)" fill="#1A75FF"/>
<rect width="8" height="1" transform="matrix(-1 0 0 1 185 150)" fill="#1A75FF"/>
<rect width="8" height="1" transform="matrix(-1 0 0 1 181 151)" fill="#1A75FF"/>
<rect width="8" height="1" transform="matrix(-1 0 0 1 174 151)" fill="#1A75FF"/>
<rect width="8" height="1" transform="matrix(-1 0 0 1 175 152)" fill="#1A75FF"/>
<rect width="8" height="1" transform="matrix(-1 0 0 1 178 153)" fill="#1A75FF"/>
<rect width="8" height="1" transform="matrix(-1 0 0 1 178 154)" fill="#1A75FF"/>
<rect width="8" height="1" transform="matrix(-1 0 0 1 177 155)" fill="#1A75FF"/>
<rect width="8" height="1" transform="matrix(-1 0 0 1 192 135)" fill="#1A75FF"/>
<rect width="8" height="1" transform="matrix(-1 0 0 1 197 134)" fill="#1A75FF"/>
<rect width="8" height="1" transform="matrix(-1 0 0 1 196 133)" fill="#1A75FF"/>
<rect width="8" height="1" transform="matrix(-1 0 0 1 195 131)" fill="#1A75FF"/>
<rect width="8" height="1" transform="matrix(-1 0 0 1 195 132)" fill="#1A75FF"/>
<rect width="8" height="1" transform="matrix(-1 0 0 1 202 132)" fill="#1A75FF"/>
<rect width="8" height="1" transform="matrix(-1 0 0 1 198 131)" fill="#1A75FF"/>
<rect width="8" height="1" transform="matrix(-1 0 0 1 198 130)" fill="#1A75FF"/>
<rect width="8" height="1" transform="matrix(-1 0 0 1 193 128)" fill="#1A75FF"/>
<rect width="8" height="1" transform="matrix(-1 0 0 1 188 123)" fill="#1A75FF"/>
<rect width="8" height="1" transform="matrix(-1 0 0 1 198 129)" fill="#1A75FF"/>
<rect width="8" height="1" transform="matrix(-1 0 0 1 194 129)" fill="#1A75FF"/>
<rect width="8" height="1" transform="matrix(-1 0 0 1 197 128)" fill="#1A75FF"/>
<rect width="8" height="1" transform="matrix(-1 0 0 1 195 127)" fill="#1A75FF"/>
<rect width="8" height="1" transform="matrix(-1 0 0 1 192 127)" fill="#1A75FF"/>
<rect width="8" height="1" transform="matrix(-1 0 0 1 197 127)" fill="#1A75FF"/>
<rect width="8" height="1" transform="matrix(-1 0 0 1 196 126)" fill="#1A75FF"/>
<rect width="8" height="1" transform="matrix(-1 0 0 1 192 126)" fill="#1A75FF"/>
<rect width="8" height="1" transform="matrix(-1 0 0 1 192 125)" fill="#1A75FF"/>
<rect width="8" height="1" transform="matrix(-1 0 0 1 193 124)" fill="#1A75FF"/>
<rect width="8" height="1" transform="matrix(-1 0 0 1 191 122)" fill="#1A75FF"/>
<rect width="8" height="1" transform="matrix(-1 0 0 1 188 121)" fill="#1A75FF"/>
<rect width="8" height="1" transform="matrix(-1 0 0 1 187 119)" fill="#1A75FF"/>
<rect width="8" height="1" transform="matrix(-1 0 0 1 185 117)" fill="#1A75FF"/>
<rect width="8" height="1" transform="matrix(-1 0 0 1 188 119)" fill="#1A75FF"/>
<rect width="8" height="1" transform="matrix(-1 0 0 1 192 121)" fill="#1A75FF"/>
<rect width="8" height="1" transform="matrix(-1 0 0 1 197 137)" fill="#1A75FF"/>
<rect width="8" height="1" transform="matrix(-1 0 0 1 200 136)" fill="#1A75FF"/>
<rect width="8" height="1" transform="matrix(-1 0 0 1 200 134)" fill="#1A75FF"/>
<rect x="156" y="99" width="4" height="1" fill="#1A75FF"/>
<rect x="157" y="100" width="4" height="1" fill="#1A75FF"/>
<rect x="158" y="102" width="2" height="1" fill="#1A75FF"/>
<rect x="118" y="103" width="4" height="1" fill="#1A75FF"/>
<rect x="114" y="103" width="4" height="1" fill="#1A75FF"/>
<rect x="114" y="104" width="4" height="1" fill="#1A75FF"/>
<rect x="119" y="104" width="4" height="1" fill="#1A75FF"/>
<rect x="123" y="104" width="4" height="1" fill="#1A75FF"/>
<rect x="125" y="104" width="4" height="1" fill="#1A75FF"/>
<rect x="116" y="105" width="4" height="1" fill="#1A75FF"/>
<rect x="123" y="105" width="4" height="1" fill="#1A75FF"/>
<rect x="120" y="105" width="4" height="1" fill="#1A75FF"/>
<rect x="119" y="106" width="4" height="1" fill="#1A75FF"/>
<rect x="123" y="106" width="4" height="1" fill="#161B23"/>
<rect x="115" y="106" width="4" height="1" fill="#1A75FF"/>
<rect x="112" y="106" width="4" height="1" fill="#161B23"/>
<rect x="107" y="105" width="4" height="1" fill="#161B23"/>
<rect x="112" y="105" width="4" height="1" fill="#1A75FF"/>
<rect x="108" y="105" width="4" height="1" fill="#161B23"/>
<rect x="108" y="100" width="4" height="1" fill="#161B23"/>
<rect x="104" y="97" width="4" height="1" fill="#161B23"/>
<rect x="155" y="120" width="4" height="1" fill="#161B23"/>
<rect x="161" y="118" width="4" height="1" fill="#161B23"/>
<rect x="161" y="135" width="4" height="1" fill="#161B23"/>
<rect x="175" y="131" width="4" height="1" fill="#161B23"/>
<rect x="160" y="129" width="4" height="1" fill="#161B23"/>
<rect x="177" y="133" width="4" height="1" fill="#161B23"/>
<rect x="157" y="116" width="4" height="1" fill="#161B23"/>
<rect x="155" y="110" width="4" height="1" fill="#161B23"/>
<rect x="111" y="104" width="4" height="1" fill="#1A75FF"/>
<rect x="121" y="99" width="4" height="1" fill="#1A75FF"/>
<rect x="130" y="95" width="4" height="1" fill="#1A75FF"/>
<rect x="121" y="96" width="4" height="1" fill="#1A75FF"/>
<rect x="120" y="98" width="4" height="1" fill="#1A75FF"/>
<rect x="135" y="97" width="4" height="1" fill="#1A75FF"/>
<rect x="131" y="93" width="4" height="1" fill="#1A75FF"/>
<rect x="126" y="93" width="4" height="1" fill="#1A75FF"/>
<rect x="108" y="104" width="4" height="1" fill="#1A75FF"/>
<rect x="110" y="103" width="4" height="1" fill="#1A75FF"/>
<rect x="107" y="103" width="4" height="1" fill="#1A75FF"/>
<rect x="133" y="96" width="4" height="1" fill="#1A75FF"/>
<rect x="142" y="92" width="4" height="1" fill="#1A75FF"/>
<rect x="133" y="93" width="4" height="1" fill="#1A75FF"/>
<rect x="132" y="95" width="4" height="1" fill="#1A75FF"/>
<rect x="147" y="94" width="4" height="1" fill="#1A75FF"/>
<rect x="143" y="90" width="4" height="1" fill="#1A75FF"/>
<rect x="138" y="90" width="4" height="1" fill="#1A75FF"/>
<rect x="149" y="96" width="4" height="1" fill="#1A75FF"/>
<rect x="106" y="102" width="4" height="1" fill="#1A75FF"/>
<rect x="112" y="101" width="4" height="1" fill="#1B1D29"/>
<rect x="103" y="101" width="4" height="1" fill="#1A75FF"/>
<rect x="105" y="100" width="4" height="1" fill="#1A75FF"/>
<rect x="103" y="99" width="4" height="1" fill="#1A75FF"/>
<rect x="102" y="98" width="4" height="1" fill="#1A75FF"/>
<rect x="101" y="94" width="4" height="1" fill="#1A75FF"/>
<rect x="94" y="88" width="4" height="1" fill="#1A75FF"/>
<rect x="96.5176" y="77" width="5" height="1" fill="#1A75FF"/>
<rect x="36.9883" y="72.916" width="1" height="1" fill="#1A75FF"/>
<rect x="32.9883" y="68.916" width="1" height="1" fill="#1A75FF"/>
</g>
<defs>
<clipPath id="clip0_646_7029">
<rect width="192" height="172" fill="white" transform="translate(44.5176) rotate(15)"/>
</clipPath>
</defs>
</svg>
