<svg width="24" height="24" viewBox="0 0 24 24" fill="none" xmlns="http://www.w3.org/2000/svg">
<g clip-path="url(#clip0_720_7595)">
<path d="M11.9999 0C5.38312 0 0 5.38312 0 11.9999C0 18.6166 5.38312 23.9997 11.9999 23.9997C18.6166 23.9997 23.9997 18.6166 23.9997 11.9999C23.9997 5.38312 18.6166 0 11.9999 0ZM11.9999 20.8891C7.09833 20.8891 3.11058 16.9014 3.11058 11.9999C3.11058 7.09828 7.09833 3.11058 11.9999 3.11058C16.9014 3.11058 20.8891 7.09833 20.8891 11.9999C20.8891 16.9014 16.9014 20.8891 11.9999 20.8891ZM18.5417 4.92806C16.9075 3.41517 14.75 2.46038 12.3746 2.36911V0.756375C15.1943 0.849141 17.7544 1.98431 19.6815 3.7883L18.5417 4.92806ZM11.6251 2.36911C9.24966 2.46042 7.09214 3.41522 5.45789 4.92816L4.31761 3.78881C6.24487 1.98455 8.80519 0.849141 11.6251 0.756375V2.36911ZM4.92797 5.45808C3.41513 7.09233 2.46042 9.2498 2.36911 11.6251H0.756375C0.849141 8.8058 1.98408 6.24591 3.78778 4.31878L4.92797 5.45808ZM2.36911 12.3746C2.46042 14.7499 3.41508 16.9074 4.92797 18.5416L3.78778 19.6809C1.98408 17.7538 0.849187 15.1939 0.756375 12.3746H2.36911ZM5.45789 19.0716C7.09214 20.5845 9.2497 21.5393 11.6251 21.6306V23.2433C8.80523 23.1506 6.24492 22.0152 4.31761 20.2109L5.45789 19.0716ZM12.3746 21.6306C14.75 21.5393 16.9075 20.5845 18.5417 19.0717L19.6815 20.2115C17.7543 22.0154 15.1942 23.1506 12.3745 23.2434L12.3746 21.6306ZM19.0716 18.5417C20.5845 16.9075 21.5392 14.75 21.6306 12.3746H23.2433C23.1506 15.1943 22.0154 17.7543 20.2114 19.6815L19.0716 18.5417ZM21.6306 11.6251C21.5392 9.24975 20.5845 7.09223 19.0716 5.45798L20.2114 4.31817C22.0154 6.24539 23.1505 8.80547 23.2433 11.6251H21.6306ZM16.8511 9.45H16.8489L14.3304 9.4553C14.1309 9.4553 13.9693 9.33769 13.9083 9.14742L13.1337 6.75192C12.9727 6.25275 12.5273 5.9302 11.9992 5.93016C11.4711 5.93016 11.0257 6.25275 10.8646 6.75187L10.0911 9.14827C10.0304 9.33764 9.86822 9.4553 9.66867 9.4553L7.15055 9.45H7.14839C6.62283 9.45 6.17827 9.7733 6.01537 10.2741C5.8523 10.7756 6.02255 11.2993 6.4493 11.6085L8.49037 13.0849C8.6513 13.2012 8.71284 13.3918 8.65134 13.5816L7.86895 15.9741C7.70456 16.4742 7.87425 16.9981 8.30119 17.3087C8.51489 17.4641 8.75939 17.5419 9.0038 17.5419C9.24778 17.5418 9.49158 17.4644 9.70406 17.3093L11.7388 15.8248C11.8998 15.707 12.0999 15.7069 12.2613 15.8251L14.2955 17.3093C14.7202 17.6192 15.2703 17.6194 15.6969 17.3094C16.1241 16.9992 16.2945 16.4753 16.1309 15.9746L15.3481 13.5812C15.286 13.3918 15.3477 13.2016 15.5093 13.0848L17.5505 11.6084C17.977 11.2993 18.1472 10.7756 17.9842 10.2741C17.8214 9.77325 17.3768 9.45 16.8511 9.45ZM17.1112 11.0013L15.0703 12.4775C14.6482 12.7825 14.4737 13.32 14.636 13.8144L15.4186 16.2074C15.5113 16.4908 15.318 16.6584 15.2566 16.703C15.1954 16.7475 14.9772 16.8788 14.7373 16.7038L12.7035 15.2199C12.2826 14.912 11.7171 14.912 11.2966 15.2196L9.26236 16.7039C9.02194 16.8791 8.80341 16.7473 8.74205 16.7027C8.68078 16.6581 8.48803 16.4907 8.58103 16.2075L9.36389 13.8137C9.52702 13.3108 9.35653 12.7863 8.92945 12.4777L6.88875 11.0016C6.64706 10.8265 6.70467 10.5779 6.72806 10.5059C6.75145 10.434 6.85083 10.1995 7.14816 10.1995H7.14914L9.66788 10.2048C10.1891 10.2048 10.646 9.87216 10.8045 9.37781L11.5777 6.98212C11.6683 6.70148 11.9232 6.67969 11.9992 6.67969C12.0751 6.67969 12.33 6.70148 12.4205 6.98208L12.4205 6.98231L13.1949 9.37711C13.3561 9.87994 13.8017 10.2048 14.3312 10.2048L16.8503 10.1995H16.8512C17.1487 10.1995 17.2481 10.434 17.2715 10.5059C17.295 10.5778 17.3526 10.8264 17.1112 11.0013Z" fill="#B3B3B3"/>
</g>
<defs>
<clipPath id="clip0_720_7595">
<rect width="24" height="24" fill="white"/>
</clipPath>
</defs>
</svg>
