<svg width="24" height="24" viewBox="0 0 24 24" fill="none" xmlns="http://www.w3.org/2000/svg">
<path d="M20.0301 9.9703L17.0301 6.9703C16.8886 6.83368 16.6992 6.75809 16.5025 6.75979C16.3059 6.7615 16.1178 6.84038 15.9787 6.97944C15.8397 7.11849 15.7608 7.3066 15.7591 7.50325C15.7574 7.6999 15.833 7.88935 15.9696 8.0308L17.6893 9.75055H7.49984C7.30093 9.75055 7.11016 9.82957 6.96951 9.97022C6.82886 10.1109 6.74984 10.3016 6.74984 10.5005C6.74984 10.6995 6.82886 10.8902 6.96951 11.0309C7.11016 11.1715 7.30093 11.2505 7.49984 11.2505H19.4998C19.6482 11.2505 19.7931 11.2065 19.9164 11.1241C20.0397 11.0417 20.1358 10.9246 20.1926 10.7875C20.2493 10.6505 20.2642 10.4997 20.2353 10.3543C20.2064 10.2088 20.1349 10.0752 20.0301 9.9703ZM16.4998 12.7505H4.49984C4.35153 12.7506 4.20655 12.7946 4.08325 12.877C3.95994 12.9594 3.86383 13.0765 3.80708 13.2136C3.75033 13.3506 3.73548 13.5014 3.7644 13.6468C3.79333 13.7923 3.86473 13.9259 3.96959 14.0308L6.96959 17.0308C7.11104 17.1674 7.30049 17.243 7.49714 17.2413C7.69379 17.2396 7.8819 17.1607 8.02095 17.0217C8.16001 16.8826 8.23889 16.6945 8.2406 16.4978C8.2423 16.3012 8.16671 16.1117 8.03009 15.9703L6.31034 14.2505H16.4998C16.6988 14.2505 16.8895 14.1715 17.0302 14.0309C17.1708 13.8902 17.2498 13.6995 17.2498 13.5005C17.2498 13.3016 17.1708 13.1109 17.0302 12.9702C16.8895 12.8296 16.6988 12.7505 16.4998 12.7505Z" fill="#B3B3B3"/>
</svg>
