<svg width="24" height="24" viewBox="0 0 24 24" fill="none" xmlns="http://www.w3.org/2000/svg">
<path d="M20 16.75H15C14.8011 16.75 14.6103 16.671 14.4697 16.5303C14.329 16.3897 14.25 16.1989 14.25 16C14.25 15.8011 14.329 15.6103 14.4697 15.4697C14.6103 15.329 14.8011 15.25 15 15.25H20C20.3314 15.2495 20.649 15.1176 20.8833 14.8833C21.1176 14.649 21.2495 14.3314 21.25 14V4C21.2495 3.66864 21.1176 3.35101 20.8833 3.1167C20.649 2.88239 20.3314 2.75053 20 2.75H4C3.66864 2.75053 3.35101 2.88239 3.1167 3.1167C2.88239 3.35101 2.75053 3.66864 2.75 4V14C2.75053 14.3314 2.88239 14.649 3.1167 14.8833C3.35101 15.1176 3.66864 15.2495 4 15.25H12C12.1989 15.25 12.3897 15.329 12.5303 15.4697C12.671 15.6103 12.75 15.8011 12.75 16C12.75 16.1989 12.671 16.3897 12.5303 16.5303C12.3897 16.671 12.1989 16.75 12 16.75H4C3.27082 16.7495 2.57165 16.4596 2.05604 15.944C1.54043 15.4283 1.25053 14.7292 1.25 14V4C1.25053 3.27082 1.54043 2.57165 2.05604 2.05604C2.57165 1.54043 3.27082 1.25053 4 1.25H20C20.7292 1.25053 21.4283 1.54043 21.944 2.05604C22.4596 2.57165 22.7495 3.27082 22.75 4V14C22.7495 14.7292 22.4596 15.4283 21.944 15.944C21.4283 16.4596 20.7292 16.7495 20 16.75ZM12 22.75C11.9015 22.7502 11.8039 22.7309 11.7129 22.6932C11.622 22.6554 11.5394 22.5999 11.47 22.53L8.47 19.53C8.33752 19.3878 8.2654 19.1998 8.26882 19.0055C8.27225 18.8112 8.35097 18.6258 8.48838 18.4884C8.62579 18.351 8.81118 18.2723 9.00548 18.2688C9.19978 18.2654 9.38783 18.3375 9.53 18.47L12 20.939L14.47 18.47C14.6122 18.3375 14.8002 18.2654 14.9945 18.2688C15.1888 18.2723 15.3742 18.351 15.5116 18.4884C15.649 18.6258 15.7277 18.8112 15.7312 19.0055C15.7346 19.1998 15.6625 19.3878 15.53 19.53L12.53 22.53C12.4606 22.5999 12.378 22.6554 12.2871 22.6932C12.1961 22.7309 12.0985 22.7502 12 22.75Z" fill="#B3B3B3"/>
<path d="M12 21.75C11.8011 21.75 11.6103 21.671 11.4697 21.5303C11.329 21.3897 11.25 21.1989 11.25 21V12C11.25 11.8011 11.329 11.6103 11.4697 11.4697C11.6103 11.329 11.8011 11.25 12 11.25C12.1989 11.25 12.3897 11.329 12.5303 11.4697C12.671 11.6103 12.75 11.8011 12.75 12V21C12.75 21.1989 12.671 21.3897 12.5303 21.5303C12.3897 21.671 12.1989 21.75 12 21.75ZM22 7.75H2C1.80109 7.75 1.61032 7.67098 1.46967 7.53033C1.32902 7.38968 1.25 7.19891 1.25 7C1.25 6.80109 1.32902 6.61032 1.46967 6.46967C1.61032 6.32902 1.80109 6.25 2 6.25H22C22.1989 6.25 22.3897 6.32902 22.5303 6.46967C22.671 6.61032 22.75 6.80109 22.75 7C22.75 7.19891 22.671 7.38968 22.5303 7.53033C22.3897 7.67098 22.1989 7.75 22 7.75ZM8 11.25H5C4.80109 11.25 4.61032 11.171 4.46967 11.0303C4.32902 10.8897 4.25 10.6989 4.25 10.5C4.25 10.3011 4.32902 10.1103 4.46967 9.96967C4.61032 9.82902 4.80109 9.75 5 9.75H8C8.19891 9.75 8.38968 9.82902 8.53033 9.96967C8.67098 10.1103 8.75 10.3011 8.75 10.5C8.75 10.6989 8.67098 10.8897 8.53033 11.0303C8.38968 11.171 8.19891 11.25 8 11.25ZM7 13.75H5C4.80109 13.75 4.61032 13.671 4.46967 13.5303C4.32902 13.3897 4.25 13.1989 4.25 13C4.25 12.8011 4.32902 12.6103 4.46967 12.4697C4.61032 12.329 4.80109 12.25 5 12.25H7C7.19891 12.25 7.38968 12.329 7.53033 12.4697C7.67098 12.6103 7.75 12.8011 7.75 13C7.75 13.1989 7.67098 13.3897 7.53033 13.5303C7.38968 13.671 7.19891 13.75 7 13.75Z" fill="#B3B3B3"/>
</svg>
